<svg aria-hidden="true" style="position: absolute; width: 0; height: 0; overflow: hidden;" version="1.1" xmlns="http://www.w3.org/2000/svg" xmlns:xlink="http://www.w3.org/1999/xlink">
<defs>
<symbol id="icon-external-link" viewBox="0 0 24 24">
<title>external-link</title>
<path d="M18 12c-0.6 0-1 0.4-1 1v6c0 0.6-0.4 1-1 1h-11c-0.6 0-1-0.4-1-1v-11c0-0.6 0.4-1 1-1h6c0.6 0 1-0.4 1-1s-0.4-1-1-1h-6c-1.7 0-3 1.3-3 3v11c0 1.7 1.3 3 3 3h11c1.7 0 3-1.3 3-3v-6c0-0.6-0.4-1-1-1z"></path>
<path d="M21.9 2.6c-0.1-0.2-0.3-0.4-0.5-0.5-0.1-0.1-0.3-0.1-0.4-0.1h-6c-0.6 0-1 0.4-1 1s0.4 1 1 1h3.6l-9.3 9.3c-0.4 0.4-0.4 1 0 1.4 0.2 0.2 0.4 0.3 0.7 0.3s0.5-0.1 0.7-0.3l9.3-9.3v3.6c0 0.6 0.4 1 1 1s1-0.4 1-1v-6c0-0.1 0-0.3-0.1-0.4z"></path>
</symbol>
<symbol id="icon-apple" viewBox="0 0 32 32">
<title>apple</title>
<path d="M9.437 31.4c-0.631-0.421-1.191-0.937-1.659-1.533-0.511-0.617-0.984-1.267-1.419-1.939-1.021-1.493-1.82-3.127-2.373-4.848-0.667-2.003-0.991-3.92-0.991-5.796 0-2.093 0.453-3.92 1.336-5.453 0.653-1.2 1.627-2.204 2.8-2.909 1.133-0.707 2.453-1.093 3.787-1.12 0.467 0 0.973 0.067 1.507 0.2 0.387 0.107 0.853 0.28 1.427 0.493 0.733 0.28 1.133 0.453 1.267 0.493 0.427 0.16 0.787 0.227 1.067 0.227 0.213 0 0.52-0.067 0.86-0.173 0.193-0.067 0.56-0.187 1.080-0.413 0.515-0.187 0.923-0.347 1.247-0.467 0.493-0.147 0.971-0.28 1.4-0.347 0.52-0.080 1.036-0.107 1.531-0.067 0.947 0.067 1.813 0.267 2.587 0.56 1.36 0.547 2.457 1.4 3.276 2.613-0.347 0.213-0.667 0.461-0.967 0.733-0.649 0.573-1.2 1.253-1.64 2.007-0.573 1.027-0.867 2.187-0.859 3.36 0.020 1.444 0.387 2.713 1.12 3.813 0.516 0.8 1.205 1.485 2.045 2.048 0.413 0.28 0.776 0.473 1.12 0.6-0.16 0.5-0.336 0.987-0.54 1.467-0.463 1.076-1.013 2.107-1.667 3.080-0.576 0.84-1.029 1.467-1.373 1.88-0.536 0.64-1.053 1.12-1.573 1.463-0.573 0.38-1.247 0.581-1.936 0.581-0.467 0.020-0.933-0.040-1.379-0.169-0.387-0.127-0.768-0.269-1.141-0.431-0.391-0.179-0.795-0.331-1.207-0.453-0.507-0.133-1.027-0.197-1.552-0.196-0.533 0-1.053 0.067-1.547 0.193-0.413 0.117-0.813 0.261-1.209 0.433-0.56 0.233-0.927 0.387-1.14 0.453-0.432 0.128-0.875 0.205-1.32 0.233-0.693 0-1.339-0.2-1.981-0.6zM18.576 6.787c-0.907 0.453-1.768 0.645-2.631 0.581-0.133-0.861 0-1.747 0.36-2.716 0.32-0.827 0.747-1.573 1.333-2.24 0.613-0.693 1.347-1.267 2.173-1.68 0.88-0.453 1.72-0.693 2.52-0.733 0.107 0.907 0 1.8-0.333 2.76-0.304 0.853-0.757 1.64-1.333 2.347-0.58 0.693-1.3 1.267-2.115 1.68z"></path>
</symbol>
<symbol id="icon-music" viewBox="0 0 24 28">
<title>music</title>
<path d="M24 3.5v17.5c0 2.203-3.297 3-5 3s-5-0.797-5-3 3.297-3 5-3c1.031 0 2.063 0.187 3 0.609v-8.391l-12 3.703v11.078c0 2.203-3.297 3-5 3s-5-0.797-5-3 3.297-3 5-3c1.031 0 2.063 0.187 3 0.609v-15.109c0-0.656 0.438-1.234 1.062-1.437l13-4c0.141-0.047 0.281-0.063 0.438-0.063 0.828 0 1.5 0.672 1.5 1.5z"></path>
</symbol>
<symbol id="icon-film" viewBox="0 0 30 28">
<title>film</title>
<path d="M6 25v-2c0-0.547-0.453-1-1-1h-2c-0.547 0-1 0.453-1 1v2c0 0.547 0.453 1 1 1h2c0.547 0 1-0.453 1-1zM6 19v-2c0-0.547-0.453-1-1-1h-2c-0.547 0-1 0.453-1 1v2c0 0.547 0.453 1 1 1h2c0.547 0 1-0.453 1-1zM6 13v-2c0-0.547-0.453-1-1-1h-2c-0.547 0-1 0.453-1 1v2c0 0.547 0.453 1 1 1h2c0.547 0 1-0.453 1-1zM22 25v-8c0-0.547-0.453-1-1-1h-12c-0.547 0-1 0.453-1 1v8c0 0.547 0.453 1 1 1h12c0.547 0 1-0.453 1-1zM6 7v-2c0-0.547-0.453-1-1-1h-2c-0.547 0-1 0.453-1 1v2c0 0.547 0.453 1 1 1h2c0.547 0 1-0.453 1-1zM28 25v-2c0-0.547-0.453-1-1-1h-2c-0.547 0-1 0.453-1 1v2c0 0.547 0.453 1 1 1h2c0.547 0 1-0.453 1-1zM22 13v-8c0-0.547-0.453-1-1-1h-12c-0.547 0-1 0.453-1 1v8c0 0.547 0.453 1 1 1h12c0.547 0 1-0.453 1-1zM28 19v-2c0-0.547-0.453-1-1-1h-2c-0.547 0-1 0.453-1 1v2c0 0.547 0.453 1 1 1h2c0.547 0 1-0.453 1-1zM28 13v-2c0-0.547-0.453-1-1-1h-2c-0.547 0-1 0.453-1 1v2c0 0.547 0.453 1 1 1h2c0.547 0 1-0.453 1-1zM28 7v-2c0-0.547-0.453-1-1-1h-2c-0.547 0-1 0.453-1 1v2c0 0.547 0.453 1 1 1h2c0.547 0 1-0.453 1-1zM30 4.5v21c0 1.375-1.125 2.5-2.5 2.5h-25c-1.375 0-2.5-1.125-2.5-2.5v-21c0-1.375 1.125-2.5 2.5-2.5h25c1.375 0 2.5 1.125 2.5 2.5z"></path>
</symbol>
<symbol id="icon-laptop" viewBox="0 0 30 28">
<title>laptop</title>
<path d="M6.5 20c-1.375 0-2.5-1.125-2.5-2.5v-11c0-1.375 1.125-2.5 2.5-2.5h17c1.375 0 2.5 1.125 2.5 2.5v11c0 1.375-1.125 2.5-2.5 2.5h-17zM6 6.5v11c0 0.266 0.234 0.5 0.5 0.5h17c0.266 0 0.5-0.234 0.5-0.5v-11c0-0.266-0.234-0.5-0.5-0.5h-17c-0.266 0-0.5 0.234-0.5 0.5zM27.5 21h2.5v1.5c0 0.828-1.125 1.5-2.5 1.5h-25c-1.375 0-2.5-0.672-2.5-1.5v-1.5h27.5zM16.25 22.5c0.141 0 0.25-0.109 0.25-0.25s-0.109-0.25-0.25-0.25h-2.5c-0.141 0-0.25 0.109-0.25 0.25s0.109 0.25 0.25 0.25h2.5z"></path>
</symbol>
<symbol id="icon-play-circle" viewBox="0 0 24 28">
<title>play-circle</title>
<path d="M12 2c6.625 0 12 5.375 12 12s-5.375 12-12 12-12-5.375-12-12 5.375-12 12-12zM18 14.859c0.313-0.172 0.5-0.5 0.5-0.859s-0.187-0.688-0.5-0.859l-8.5-5c-0.297-0.187-0.688-0.187-1-0.016-0.313 0.187-0.5 0.516-0.5 0.875v10c0 0.359 0.187 0.688 0.5 0.875 0.156 0.078 0.328 0.125 0.5 0.125s0.344-0.047 0.5-0.141z"></path>
</symbol>
<symbol id="icon-soundcloud" viewBox="0 0 36 28">
<title>soundcloud</title>
<path d="M12.25 21.438l0.25-3.766-0.25-8.172c-0.016-0.203-0.172-0.375-0.375-0.375-0.187 0-0.359 0.172-0.359 0.375l-0.219 8.172 0.219 3.766c0.016 0.203 0.172 0.359 0.359 0.359 0.203 0 0.359-0.156 0.375-0.359zM16.875 20.984l0.172-3.297-0.187-9.156c0-0.156-0.078-0.297-0.203-0.375-0.078-0.047-0.156-0.078-0.25-0.078s-0.172 0.031-0.25 0.078c-0.125 0.078-0.203 0.219-0.203 0.375l-0.016 0.094-0.156 9.047s0 0.016 0.172 3.687v0.016c0 0.094 0.031 0.187 0.094 0.266 0.094 0.109 0.219 0.172 0.359 0.172 0.125 0 0.234-0.063 0.313-0.141 0.094-0.078 0.141-0.187 0.141-0.313zM0.547 15.672l0.313 2-0.313 1.969c-0.016 0.078-0.063 0.141-0.141 0.141s-0.125-0.063-0.141-0.141l-0.266-1.969 0.266-2c0.016-0.078 0.063-0.141 0.141-0.141s0.125 0.063 0.141 0.141zM1.891 14.438l0.406 3.234-0.406 3.172c-0.016 0.078-0.078 0.141-0.156 0.141s-0.141-0.063-0.141-0.156l-0.359-3.156 0.359-3.234c0-0.078 0.063-0.141 0.141-0.141s0.141 0.063 0.156 0.141zM6.266 21.516v0 0zM3.328 13.844l0.391 3.828-0.391 3.703c0 0.094-0.078 0.172-0.172 0.172s-0.172-0.078-0.187-0.172l-0.328-3.703 0.328-3.828c0.016-0.109 0.094-0.187 0.187-0.187s0.172 0.078 0.172 0.187zM4.797 13.734l0.359 3.938-0.359 3.813c-0.016 0.125-0.109 0.203-0.219 0.203s-0.203-0.078-0.203-0.203l-0.328-3.813 0.328-3.938c0-0.125 0.094-0.203 0.203-0.203s0.203 0.078 0.219 0.203zM6.266 14.016l0.328 3.656-0.328 3.844c-0.016 0.141-0.125 0.25-0.25 0.25s-0.234-0.109-0.234-0.25l-0.313-3.844 0.313-3.656c0-0.125 0.109-0.234 0.234-0.234s0.234 0.109 0.25 0.234zM12.25 21.438v0 0zM7.734 11.734l0.328 5.938-0.328 3.844c0 0.156-0.125 0.281-0.266 0.281-0.156 0-0.266-0.125-0.281-0.281l-0.281-3.844 0.281-5.938c0.016-0.156 0.125-0.281 0.281-0.281 0.141 0 0.266 0.125 0.266 0.281zM9.203 10.391l0.297 7.313-0.297 3.813c0 0.172-0.141 0.297-0.297 0.297-0.172 0-0.297-0.125-0.313-0.297l-0.25-3.813 0.25-7.313c0.016-0.172 0.141-0.297 0.313-0.297 0.156 0 0.297 0.125 0.297 0.297zM10.734 9.766l0.281 7.906-0.281 3.781c-0.016 0.187-0.156 0.328-0.344 0.328-0.172 0-0.313-0.141-0.328-0.328l-0.25-3.781 0.25-7.906c0-0.187 0.156-0.344 0.328-0.344 0.187 0 0.328 0.156 0.344 0.344zM16.859 21.359v0 0 0 0 0 0zM13.766 9.703l0.234 7.969-0.234 3.734c0 0.219-0.172 0.391-0.391 0.391s-0.375-0.172-0.391-0.391l-0.219-3.734 0.219-7.969c0-0.219 0.172-0.391 0.391-0.391s0.391 0.172 0.391 0.391zM15.313 10l0.219 7.688-0.219 3.687c0 0.234-0.187 0.422-0.422 0.422s-0.422-0.187-0.438-0.422l-0.187-3.687 0.187-7.688c0.016-0.25 0.203-0.438 0.438-0.438s0.406 0.187 0.422 0.438zM18.625 17.687l-0.219 3.609c0 0.266-0.219 0.484-0.484 0.484s-0.484-0.219-0.5-0.484l-0.094-1.781-0.094-1.828 0.187-9.938v-0.047c0.016-0.141 0.078-0.281 0.187-0.375 0.078-0.063 0.187-0.109 0.313-0.109 0.078 0 0.172 0.031 0.234 0.078 0.141 0.078 0.234 0.234 0.25 0.406zM36 17.391c0 2.438-1.984 4.406-4.422 4.406h-12.281c-0.266-0.031-0.484-0.234-0.484-0.516v-14.047c0-0.266 0.094-0.391 0.438-0.516 0.859-0.344 1.828-0.531 2.828-0.531 4.078 0 7.422 3.125 7.781 7.109 0.531-0.219 1.109-0.344 1.719-0.344 2.438 0 4.422 1.984 4.422 4.438z"></path>
</symbol>
<symbol id="icon-file-audio-o" viewBox="0 0 24 28">
<title>file-audio-o</title>
<path d="M22.937 5.938c0.578 0.578 1.062 1.734 1.062 2.562v18c0 0.828-0.672 1.5-1.5 1.5h-21c-0.828 0-1.5-0.672-1.5-1.5v-25c0-0.828 0.672-1.5 1.5-1.5h14c0.828 0 1.984 0.484 2.562 1.062zM16 2.125v5.875h5.875c-0.094-0.266-0.234-0.531-0.344-0.641l-4.891-4.891c-0.109-0.109-0.375-0.25-0.641-0.344zM22 26v-16h-6.5c-0.828 0-1.5-0.672-1.5-1.5v-6.5h-12v24h20zM9.688 13.281c0.187 0.078 0.313 0.266 0.313 0.469v8.5c0 0.203-0.125 0.391-0.313 0.469-0.063 0.016-0.125 0.031-0.187 0.031-0.125 0-0.25-0.047-0.359-0.141l-2.594-2.609h-2.047c-0.281 0-0.5-0.219-0.5-0.5v-3c0-0.281 0.219-0.5 0.5-0.5h2.047l2.594-2.609c0.156-0.141 0.359-0.187 0.547-0.109zM16.203 24.047c0.297 0 0.578-0.125 0.781-0.375 1.297-1.594 2.016-3.609 2.016-5.672s-0.719-4.078-2.016-5.672c-0.344-0.438-0.984-0.5-1.406-0.156-0.438 0.359-0.5 0.984-0.141 1.422 1.016 1.25 1.563 2.781 1.563 4.406s-0.547 3.156-1.563 4.406c-0.359 0.438-0.297 1.062 0.141 1.406 0.187 0.156 0.406 0.234 0.625 0.234zM12.906 21.734c0.266 0 0.531-0.109 0.734-0.313 0.875-0.938 1.359-2.141 1.359-3.422s-0.484-2.484-1.359-3.422c-0.375-0.406-1.016-0.422-1.422-0.047-0.391 0.375-0.422 1.016-0.031 1.422 0.516 0.562 0.812 1.281 0.812 2.047s-0.297 1.484-0.812 2.047c-0.391 0.406-0.359 1.047 0.031 1.422 0.203 0.172 0.453 0.266 0.688 0.266z"></path>
</symbol>
<symbol id="icon-television" viewBox="0 0 30 28">
<title>television</title>
<path d="M28 19.5v-15c0-0.266-0.234-0.5-0.5-0.5h-25c-0.266 0-0.5 0.234-0.5 0.5v15c0 0.266 0.234 0.5 0.5 0.5h25c0.266 0 0.5-0.234 0.5-0.5zM30 4.5v15c0 1.375-1.125 2.5-2.5 2.5h-11.5v2h5.5c0.281 0 0.5 0.219 0.5 0.5v1c0 0.281-0.219 0.5-0.5 0.5h-13c-0.281 0-0.5-0.219-0.5-0.5v-1c0-0.281 0.219-0.5 0.5-0.5h5.5v-2h-11.5c-1.375 0-2.5-1.125-2.5-2.5v-15c0-1.375 1.125-2.5 2.5-2.5h25c1.375 0 2.5 1.125 2.5 2.5z"></path>
</symbol>
<symbol id="icon-podcast" viewBox="0 0 24 28">
<title>podcast</title>
<path d="M15.531 18.625c0 1.031-0.109 2.063-0.266 3.078-0.234 1.625-0.469 3.297-0.859 4.891-0.281 1.141-1.344 1.406-2.375 1.406s-2.094-0.266-2.375-1.406c-0.391-1.594-0.625-3.266-0.859-4.891-0.156-1.016-0.266-2.047-0.266-3.078 0-2.109 1.703-2.625 3.5-2.625s3.5 0.516 3.5 2.625zM24 12c0 5.063-3.125 9.391-7.562 11.156-0.172 0.063-0.359-0.094-0.328-0.281 0.047-0.328 0.094-0.672 0.156-1.031 0.031-0.25 0.063-0.5 0.094-0.734 0.016-0.094 0.063-0.156 0.141-0.187 3.25-1.656 5.5-5.031 5.5-8.922 0-5.703-4.781-10.297-10.547-9.984-5.281 0.281-9.484 4.781-9.453 10.063 0.031 3.891 2.297 7.25 5.563 8.875 0.078 0.031 0.125 0.109 0.141 0.187 0.031 0.219 0.063 0.453 0.094 0.703 0.063 0.375 0.109 0.719 0.172 1.062 0.031 0.187-0.172 0.344-0.344 0.266-4.641-1.813-7.875-6.438-7.609-11.766 0.297-6.047 5.172-11 11.219-11.375 6.969-0.438 12.766 5.094 12.766 11.969zM15.531 11.5c0 1.937-1.563 3.5-3.5 3.5s-3.5-1.563-3.5-3.5 1.563-3.5 3.5-3.5 3.5 1.563 3.5 3.5zM20.031 12c0 2.578-1.234 4.891-3.125 6.344-0.156 0.125-0.375 0.016-0.406-0.187-0.047-0.438-0.172-0.953-0.453-1.437-0.063-0.094-0.047-0.219 0.047-0.313 1.188-1.094 1.937-2.656 1.937-4.406 0-3.531-3.078-6.359-6.687-5.969-2.766 0.313-5.016 2.594-5.281 5.375-0.203 1.969 0.578 3.781 1.906 5 0.094 0.094 0.109 0.219 0.047 0.313-0.281 0.484-0.406 1-0.453 1.453-0.031 0.187-0.25 0.297-0.406 0.172-1.937-1.5-3.172-3.859-3.125-6.516 0.094-4.156 3.469-7.625 7.609-7.812 4.594-0.219 8.391 3.437 8.391 7.984z"></path>
</symbol>
<symbol id="icon-magnifying-glass" viewBox="0 0 20 20">
<title>magnifying-glass</title>
<path d="M17.545 15.467l-3.779-3.779c0.57-0.935 0.898-2.035 0.898-3.21 0-3.417-2.961-6.377-6.378-6.377s-6.186 2.769-6.186 6.186c0 3.416 2.961 6.377 6.377 6.377 1.137 0 2.2-0.309 3.115-0.844l3.799 3.801c0.372 0.371 0.975 0.371 1.346 0l0.943-0.943c0.371-0.371 0.236-0.84-0.135-1.211zM4.004 8.287c0-2.366 1.917-4.283 4.282-4.283s4.474 2.107 4.474 4.474c0 2.365-1.918 4.283-4.283 4.283s-4.473-2.109-4.473-4.474z"></path>
</symbol>
<symbol id="icon-mobile" viewBox="0 0 20 20">
<title>mobile</title>
<path d="M14.004 0h-8.008c-1.102 0-1.996 0.894-1.996 1.996v16.007c0 1.103 0.894 1.997 1.996 1.997h8.007c1.103 0 1.997-0.894 1.997-1.996v-16.008c0-1.102-0.894-1.996-1.996-1.996zM10 19c-0.69 0-1.25-0.447-1.25-1s0.56-1 1.25-1 1.25 0.447 1.25 1-0.56 1-1.25 1zM14 16h-8v-14h8v14z"></path>
</symbol>
<symbol id="icon-book" viewBox="0 0 32 32">
<title>book</title>
<path d="M28 4v26h-21c-1.657 0-3-1.343-3-3s1.343-3 3-3h19v-24h-20c-2.2 0-4 1.8-4 4v24c0 2.2 1.8 4 4 4h24v-28h-2z"></path>
<path d="M7.002 26v0c-0.001 0-0.001 0-0.002 0-0.552 0-1 0.448-1 1s0.448 1 1 1c0.001 0 0.001-0 0.002-0v0h18.997v-2h-18.997z"></path>
</symbol>
</defs>
</svg>
